<svg xmlns="http://www.w3.org/2000/svg" xmlns:ev="http://www.w3.org/2001/xml-events" xmlns:xlink="http://www.w3.org/1999/xlink" width="191.393" height="84.15" class="st16" color-interpolation-filters="sRGB" viewBox="0 0 143.545 63.112" xml:space="preserve"><style type="text/css">.st1,.st2{stroke-width:.75}.st1{fill:#fff;stroke:#fff;stroke-linecap:round;stroke-linejoin:round}.st2{fill:#949494;stroke:none}.st2,.st3,.st4,.st5,.st6{stroke-linecap:butt}.st3,.st4,.st5,.st6,.st7{stroke:none;stroke-width:.75}.st3{fill:url(#grad0-9)}.st4{fill:url(#grad0-13)}.st5{fill:#37c2b1}.st6{fill:#a3a3a3}.st7{fill:none;stroke-linecap:round;stroke-linejoin:round}.st8{fill:#000;font-family:Calibri;font-size:1.00001em}.st10,.st9{stroke:#c00000}.st9{marker-end:url(#mrkr13-40);stroke-linecap:round;stroke-linejoin:round;stroke-width:2.25}.st10{fill:#c00000;fill-opacity:1;stroke-opacity:1;stroke-width:.47169811320755}.st11{stroke:#000;stroke-linecap:round;stroke-linejoin:round;stroke-width:.5}.st11,.st12{fill:#fff}.st12,.st13,.st14,.st15{stroke:none;stroke-linecap:butt;stroke-width:.75}.st13{fill:#0078d4}.st14{fill:url(#grad0-54)}.st15{fill:#4d4d4d}.st16{fill:none;fill-rule:evenodd;font-size:12px;overflow:visible;stroke-linecap:square;stroke-miterlimit:3}</style><defs id="Patterns_And_Gradients"><linearGradient id="grad0-9" x1="0" x2="1" y1="0" y2="0" gradientTransform="rotate(90 0.5 0.5)"><stop offset="0" stop-color="#c69aeb" stop-opacity="1"/><stop offset="1" stop-color="#6f4bb2" stop-opacity="1"/></linearGradient><linearGradient id="grad0-13" x1="0" x2="1" y1="0" y2="0" gradientTransform="rotate(90 0.5 0.5)"><stop offset="0" stop-color="#54aef0" stop-opacity="1"/><stop offset="1" stop-color="#1988d9" stop-opacity="1"/></linearGradient><linearGradient id="grad0-54" x1="0" x2="1" y1="0" y2="0" gradientTransform="rotate(-90.072226136554 0.5 0.5)"><stop offset="0" stop-color="#0078d4" stop-opacity="1"/><stop offset=".82" stop-color="#5ea0ef" stop-opacity="1"/></linearGradient></defs><defs id="Markers"><g id="lend13"><path d="M 3 1 L 0 0 L 3 -1 L 3 1" style="stroke:none"/></g><marker id="mrkr13-40" class="st10" markerUnits="strokeWidth" orient="auto" overflow="visible" refX="-6.36"><use transform="scale(-2.12,-2.12)" xlink:href="#lend13"/></marker></defs><g><title>Page-1</title><g id="shape1068-1" transform="translate(0.375,-0.375034)"><title>Sheet.1068</title><rect width="142.583" height="62.362" x="0" y=".75" class="st1"/></g><g id="group1069-3" transform="translate(81.1285,-19.54)"><title>Management Groups.1069</title><g id="shape1070-4" transform="translate(7.10934,-11.2144)"><title>Sheet.1070</title><path d="M17.68 62.63 L14.86 56.21 L8.87 48.97 L2.84 56.19 L0 62.59 L1 63.07 L3.31 57.86 L5.58 63.07 L6.6 62.61 L3.96 56.6 L8.87 50.72 L13.76 56.62 L11.09 62.61 L12.08 63.09 L14.39 57.9 L16.67 63.11 L17.68 62.63 Z" class="st2"/></g><g id="shape1071-6" transform="translate(12.803,-21.1903)"><title>Sheet.1071</title><ellipse cx="3.176" cy="59.826" class="st3" rx="3.176" ry="3.286"/></g><g id="shape1072-10" transform="translate(8.12406,-15.5898)"><title>Sheet.1072</title><path d="M2.22 58.33 A2.3113 2.39189 0 1 1 -0 60.74 A2.3113 2.39189 0 0 1 2.22 58.33 ZM11.09 60.74 A2.29251 2.37245 -180 0 0 13.38 63.11 A2.3113 2.39189 -180 1 0 11.09 60.74 Z" class="st4"/></g><g id="group1073-14" transform="translate(5.77517,-9.56147)"><title>Sheet.1073</title><g id="shape1074-15" transform="translate(4.04676E-14,-0.0583388)"><title>Sheet.1074</title><ellipse cx="1.823" cy="61.226" class="st5" rx="1.823" ry="1.886"/></g><g id="shape1075-17" transform="translate(5.59975,-0.0388925)"><title>Sheet.1075</title><ellipse cx="1.823" cy="61.226" class="st5" rx="1.823" ry="1.886"/></g><g id="group1076-19" transform="translate(11.0867,0)"><title>Sheet.1076</title><g id="shape1077-20" transform="translate(4.59632E-14,-0.0194463)"><title>Sheet.1077</title><ellipse cx="1.823" cy="61.226" class="st5" rx="1.823" ry="1.886"/></g><g id="shape1078-22" transform="translate(5.59975,-1.42109E-14)"><title>Sheet.1078</title><ellipse cx="1.823" cy="61.226" class="st5" rx="1.823" ry="1.886"/></g></g></g><g id="shape1079-24" transform="translate(0.00630781,-0.162375)"><title>Sheet.1079</title><path d="M0 59.35 a0.300657 0.31114 -180 0 0 0.150329 0.272248 L2.31 60.87 L6.07 63.09 a0.33824 0.350033 -180 0 0 0.432195 -0.116678 L7.65 60.87 a0.281866 0.291694 -180 0 0 -0.112747 -0.427818 L3.23 57.78 a0.300657 0.31114 0 0 1 -0.150329 -0.272248 L3.08 37.01 a0.300657 0.31114 0 0 1 0.150329 -0.272248 L7.54 34.15 a0.281866 0.291694 -180 0 0 0.112747 -0.505603 L6.43 31.49 a0.33824 0.350033 -180 0 0 -0.432195 -0.116678 L2.39 33.53 L0.15 34.89 a0.300657 0.31114 -180 0 0 -0.150329 0.272248 L0 59.35 Z" class="st2"/></g><g id="shape1080-26"><title>Sheet.1080</title><path d="M7.65 33.48 L6.43 31.32 a0.33824 0.350033 -180 0 0 -0.319449 -0.15557 L5.96 31.17 L2.36 33.37 L0.12 34.73 a0.187911 0.194463 -180 0 0 -0.112747 2.98428E-13 a0.450986 0.466711 -180 0 0 -4.4964E-14 0.15557 L3.09 36.83 a0.300657 0.31114 0 0 1 0.150329 -0.272248 L7.54 33.99 a0.281866 0.291694 -180 0 0 0.112747 -0.505603 ZM7.65 60.71 L6.43 62.94 a0.33824 0.350033 0 0 1 -0.319449 0.15557 a0.225493 0.233355 0 0 1 -0.150329 0 L2.36 60.82 L0.12 59.46 a0.187911 0.194463 0 0 1 -0.112747 7.10543E-15 a0.450986 0.466711 0 0 1 0 -0.15557 L3.09 57.36 a0.300657 0.31114 -180 0 0 0.150329 0.272248 L7.54 60.22 a0.300657 0.31114 0 0 1 0.112747 0.486157 Z" class="st6"/></g><g id="shape1081-28" transform="translate(24.2643,-0.104036)"><title>Sheet.1081</title><path d="M7.69 35.1 a0.300657 0.31114 -180 0 0 -0.150329 -0.272248 L5.38 33.59 L1.62 31.37 a0.33824 0.350033 -180 0 0 -0.432195 0.116678 L0.04 33.59 a0.281866 0.291694 -180 0 0 0.112747 0.427818 L4.45 36.6 a0.300657 0.31114 0 0 1 0.150329 0.272248 L4.61 57.45 a0.300657 0.31114 0 0 1 -0.150329 0.272248 L0.15 60.31 a0.281866 0.291694 -180 0 0 -0.112747 0.427818 L1.26 62.97 a0.33824 0.350033 -180 0 0 0.432195 0.116678 L5.3 60.93 L7.54 59.57 a0.300657 0.31114 -180 0 0 0.150329 -0.272248 L7.69 35.1 Z" class="st2"/></g><g id="shape1082-30" transform="translate(24.2283,-0.0133458)"><title>Sheet.1082</title><path d="M0.07 60.72 L1.3 62.96 a0.33824 0.350033 -180 0 0 0.319449 0.15557 L1.77 63.11 L5.37 60.95 L7.61 59.59 a0.187911 0.194463 -180 0 0 0.112747 -7.10543E-15 a0.450986 0.466711 -180 0 0 1.15463E-14 -0.15557 L4.64 57.49 a0.300657 0.31114 0 0 1 -0.150329 0.272248 L0.19 60.35 a0.281866 0.291694 -180 0 0 -0.112747 0.369479 ZM0.07 33.5 L1.3 31.34 a0.33824 0.350033 0 0 1 0.319449 -0.15557 a0.225493 0.233355 0 0 1 0.150329 2.0961E-13 L5.37 33.34 L7.61 34.7 a0.187911 0.194463 0 0 1 0.112747 1.7053E-13 a0.450986 0.466711 0 0 1 -1.26121E-13 0.15557 L4.64 36.8 a0.300657 0.31114 -180 0 0 -0.150329 -0.272248 L0.19 34 a0.300657 0.31114 0 0 1 -0.112747 -0.505603 Z" class="st6"/></g></g><g id="shape1083-32" transform="translate(51.0443,-0.375)"><title>Sheet.1083</title><desc>Platform</desc><rect width="92.126" height="17.706" x="0" y="45.406" class="st7"/><text x="24.82" y="57.86" class="st8">Platform</text></g><g id="shape1084-35" transform="translate(50.4981,-37.3028)"><title>Sheet.1084</title><path d="M0 63.11 L13.52 63.11" class="st9"/></g><g id="shape1085-41" transform="translate(4.9813,-14.6846)"><title>Sheet.1085</title><ellipse cx="23.209" cy="39.904" class="st11" rx="23.209" ry="23.209"/></g><g id="group1086-43" transform="translate(18.8002,-15.3021)"><title>Icon-377PolicySet.1086</title><g id="group1087-44" transform="translate(5.19584E-14,-13.3058)"><title>Sheet.1087</title><g id="shape1088-45" transform="translate(4.33877,-4.64918)"><title>Sheet.1088</title><rect width="8.935" height="10.852" x="0" y="52.26" class="st12"/></g><g id="shape1089-47" transform="translate(4.03606,-4.35769)"><title>Sheet.1089</title><path d="M1.1 62.53 L0.58 62.53 L0.58 52.25 L8.97 52.25 L8.97 56.67 L9.53 56.67 L9.53 51.97 a0.280282 0.280282 -180 0 0 -0.280282 -0.280282 L0.28 51.69 a0.313916 0.313916 -180 0 0 -0.280282 0.280282 L0 62.83 a0.302705 0.302705 -180 0 0 0.0896903 0.201803 a0.291493 0.291493 -180 0 0 0.190592 0.078479 L1.08 63.11 L1.1 62.53 Z" class="st13"/></g><g id="shape1090-49" transform="translate(5.12356,-3.01234)"><title>Sheet.1090</title><path d="M5.35 51.78 L0.39 51.78 a0.392395 0.392395 -180 0 0 -0.392395 0.43724 L0 62.73 a0.392395 0.392395 -180 0 0 0.392395 0.381184 L9 63.11 a0.392395 0.392395 -180 0 0 0.381184 -0.392395 L9.38 55.71 a0.392395 0.392395 -180 0 0 -0.392395 -0.392395 L6.14 55.32 a0.392395 0.392395 0 0 1 -0.392395 -0.392395 L5.75 52.21 a0.381184 0.381184 -180 0 0 -0.403606 -0.43724 Z" class="st12"/></g><g id="shape1091-51" transform="translate(5.04508,-2.9787)"><title>Sheet.1091</title><path d="M5.25 52.24 L5.25 54.87 a0.964171 0.964171 -180 0 0 0.975382 0.964171 L8.97 55.84 L8.97 62.56 L0.62 62.56 L0.62 52.24 L5.25 52.24 ZM5.44 51.65 L0.41 51.65 a0.403606 0.403606 -180 0 0 -0.414818 0.392395 L0 62.72 a0.403606 0.403606 -180 0 0 0.403606 0.392395 L9.11 63.11 a0.392395 0.392395 -180 0 0 0.403606 -0.392395 L9.52 55.65 a0.381184 0.381184 -180 0 0 -0.403606 -0.381184 L6.23 55.26 a0.392395 0.392395 0 0 1 -0.392395 -0.392395 L5.84 52.05 a0.403606 0.403606 -180 0 0 -0.403606 -0.392395 Z" class="st14"/></g><g id="shape1092-55" transform="translate(10.7404,-10.7481)"><title>Sheet.1092</title><path d="M3.68 63.1 L0 59.51 L0 62.44 a0.661466 0.661466 -180 0 0 0.661466 0.672677 L3.68 63.1 Z" class="st13"/></g><g id="shape1093-57" transform="translate(6.77162,-9.04401)"><title>Sheet.1093</title><path d="M5.81 63.11 L0.2 63.11 a0.190592 0.190592 0 0 1 -0.201803 -0.190592 a0.201803 0.201803 0 0 1 0.246648 -0.190592 L5.85 62.73 a0.201803 0.201803 0 0 1 0.201803 0.201803 a0.190592 0.190592 0 0 1 -0.246648 0.179381 Z" class="st15"/></g><g id="shape1094-59" transform="translate(6.77162,-7.92288)"><title>Sheet.1094</title><path d="M5.81 63.11 L0.2 63.11 a0.201803 0.201803 0 0 1 -0.201803 -0.201803 a0.201803 0.201803 0 0 1 0.246648 -0.179381 L5.85 62.73 a0.201803 0.201803 0 0 1 0.201803 0.190592 a0.201803 0.201803 0 0 1 -0.246648 0.190592 Z" class="st15"/></g><g id="shape1095-61" transform="translate(6.77162,-6.79054)"><title>Sheet.1095</title><path d="M5.81 63.11 L0.2 63.11 a0.201803 0.201803 0 0 1 -0.201803 -0.201803 a0.190592 0.190592 0 0 1 0.246648 -0.190592 L5.85 62.72 a0.190592 0.190592 0 0 1 0.201803 0.190592 a0.201803 0.201803 0 0 1 -0.246648 0.201803 Z" class="st15"/></g><g id="shape1096-63"><title>Sheet.1096</title><path d="M0 60.85 a0.168169 0.168169 -180 0 0 0.100902 0.156958 L1.48 61.78 L3.83 63.09 a0.190592 0.190592 -180 0 0 0.25786 -0.0672677 L4.89 61.7 a0.190592 0.190592 -180 0 0 -0.0672677 -0.25786 L2.06 59.91 a0.179381 0.179381 0 0 1 -0.0896903 -0.156958 L1.97 47.62 a0.179381 0.179381 0 0 1 0.0896903 -0.156958 L4.82 45.93 a0.190592 0.190592 -180 0 0 0.0672677 -0.25786 L4.09 44.35 a0.190592 0.190592 -180 0 0 -0.25786 -0.0672677 L1.52 45.57 L0.1 46.37 a0.168169 0.168169 -180 0 0 -0.100902 0.156958 L0 60.85 Z" class="st2"/></g><g id="shape1097-65" transform="translate(0,-15.5802)"><title>Sheet.1097</title><path d="M1.96 63.11 a0.145747 0.145747 0 0 1 0.078479 -0.0672677 L4.79 61.51 a0.190592 0.190592 -180 0 0 0.0672677 -0.25786 L4.07 59.93 a0.213014 0.213014 -180 0 0 -0.269071 -0.0672677 L1.56 61.15 L0.07 61.95 a0.190592 0.190592 -180 0 0 -0.0672677 0.0672677 L1.12 62.61 L1.96 63.11 Z" class="st6"/></g><g id="shape1098-67" transform="translate(0.0112113,-0.0700342)"><title>Sheet.1098</title><path d="M4.78 61.52 L2.03 59.98 a0.224226 0.224226 0 0 1 -0.0896903 -0.0896903 L0 61.01 L0.06 61.01 L1.45 61.78 L3.79 63.1 a0.213014 0.213014 -180 0 0 0.269071 -0.0672677 L4.84 61.71 a0.190592 0.190592 -180 0 0 -0.0672677 -0.190592 Z" class="st6"/></g><g id="shape1099-69" transform="translate(14.1521,0)"><title>Sheet.1099</title><path d="M4.91 60.85 a0.168169 0.168169 0 0 1 -0.100902 0.156958 L3.43 61.78 L1.07 63.09 a0.190592 0.190592 0 0 1 -0.25786 -0.0672677 L0.02 61.7 a0.190592 0.190592 0 0 1 0.0672677 -0.25786 L2.84 59.91 a0.179381 0.179381 -180 0 0 0.0896903 -0.156958 L2.93 47.62 a0.179381 0.179381 -180 0 0 -0.0896903 -0.156958 L0.09 45.93 a0.190592 0.190592 0 0 1 -0.0672677 -0.25786 L0.81 44.35 a0.190592 0.190592 0 0 1 0.25786 -0.0672677 L3.38 45.57 L4.81 46.37 a0.168169 0.168169 0 0 1 0.100902 0.156958 L4.91 60.85 Z" class="st2"/></g><g id="shape1100-71" transform="translate(14.1858,-15.5802)"><title>Sheet.1100</title><path d="M2.91 63.11 a0.145747 0.145747 -180 0 0 -0.078479 -0.0672677 L0.09 61.51 a0.190592 0.190592 0 0 1 -0.0672677 -0.25786 L0.8 59.93 a0.213014 0.213014 0 0 1 0.269071 -0.0672677 L3.37 61.15 L4.81 61.95 a0.190592 0.190592 0 0 1 0.0672677 0.0672677 L3.75 62.61 L2.91 63.11 Z" class="st6"/></g><g id="shape1101-73" transform="translate(14.2408,-0.0700342)"><title>Sheet.1101</title><path d="M0.03 61.52 L2.78 59.98 a0.224226 0.224226 -180 0 0 0.0896903 -0.0896903 L4.81 61.01 L3.42 61.78 L1.07 63.1 a0.213014 0.213014 0 0 1 -0.269071 -0.0672677 L0.02 61.71 a0.190592 0.190592 0 0 1 0.0112113 -0.190592 Z" class="st6"/></g></g></g></g></svg>